<?xml version="1.0" encoding="UTF-8"?>
<svg width="80px" height="80px" viewBox="0 0 80 80" version="1.1" xmlns="http://www.w3.org/2000/svg" xmlns:xlink="http://www.w3.org/1999/xlink">
    <!-- Generator: sketchtool 47.1 (45422) - http://www.bohemiancoding.com/sketch -->
    <title>img/tab-icons/icon-accounts</title>
    <desc>Created with sketchtool.</desc>
    <defs></defs>
    <g id="Applet-images" stroke="none" stroke-width="1" fill="none" fill-rule="evenodd">
        <g id="img/tab-icons/icon-accounts" fill="#9B9BAB">
            <g id="icon-document">
                <g id="text-line-form">
                    <path d="M79.8462248,3.2 C79.8462248,1.44 78.082536,0 75.9269164,0 L4.07308357,0 C1.91746398,0 0.153775216,1.44 0.153775216,3.2 L0.153775216,76.8 C0.153775216,78.56 1.91746398,80 4.07308357,80 L75.927147,80 C78.0827666,80 79.8464553,78.56 79.8464553,76.8 L79.8464553,3.2 L79.8462248,3.2 Z M7.99239193,6.4 L72.0078386,6.4 L72.0078386,73.6 L7.99239193,73.6 L7.99239193,6.4 Z" id="Shape" fill-rule="nonzero"></path>
                    <path d="M57.6368876,18.6667294 L22.3631124,18.6667294 C20.2074928,18.6667294 18.443804,20.1067294 18.443804,21.8667294 C18.443804,23.6267294 20.2074928,25.0667294 22.3631124,25.0667294 L57.6368876,25.0667294 C59.7925072,25.0667294 61.556196,23.6267294 61.556196,21.8667294 C61.556196,20.1067294 59.7925072,18.6667294 57.6368876,18.6667294 Z" id="Shape" fill-rule="nonzero"></path>
                    <path d="M57.6368876,35.7332706 L22.3631124,35.7332706 C20.2074928,35.7332706 18.443804,37.1732706 18.443804,38.9332706 C18.443804,40.6932706 20.2074928,42.1332706 22.3631124,42.1332706 L57.6368876,42.1332706 C59.7925072,42.1332706 61.556196,40.6932706 61.556196,38.9332706 C61.556196,37.1732706 59.7925072,35.7332706 57.6368876,35.7332706 Z" id="Shape" fill-rule="nonzero"></path>
                    <path d="M57.6368876,53.8667294 L22.3631124,53.8667294 C20.2074928,53.8667294 18.443804,55.3067294 18.443804,57.0667294 C18.443804,58.8267294 20.2074928,60.2667294 22.3631124,60.2667294 L57.6368876,60.2667294 C59.7925072,60.2667294 61.556196,58.8267294 61.556196,57.0667294 C61.556196,55.3067294 59.7925072,53.8667294 57.6368876,53.8667294 Z" id="Shape" fill-rule="nonzero"></path>
                </g>
            </g>
        </g>
    </g>
</svg>