<?xml version="1.0" encoding="UTF-8"?>
<svg width="80px" height="80px" viewBox="0 0 80 80" version="1.1" xmlns="http://www.w3.org/2000/svg" xmlns:xlink="http://www.w3.org/1999/xlink">
    <!-- Generator: sketchtool 47.1 (45422) - http://www.bohemiancoding.com/sketch -->
    <title>img/icon-tx-sent</title>
    <desc>Created with sketchtool.</desc>
    <defs></defs>
    <g id="Images" stroke="none" stroke-width="1" fill="none" fill-rule="evenodd">
        <g id="img/icon-tx-sent" fill="#FFFFFF">
            <g id="icon-sent">
                <g id="sent">
                    <path d="M40,80 C17.90861,80 0,62.09139 0,40 C0,17.90861 17.90861,0 40,0 C62.09139,0 80,17.90861 80,40 C80,62.09139 62.09139,80 40,80 Z M40,77 C60.4345357,77 77,60.4345357 77,40 C77,19.5654643 60.4345357,3 40,3 C19.5654643,3 3,19.5654643 3,40 C3,60.4345357 19.5654643,77 40,77 Z" id="Combined-Shape"></path>
                    <path d="M44.0475366,48.1326616 L58.0267529,53.2206803 L44.0475366,24.5590393 L44.0475366,48.1326616 Z M44.0475366,51.325195 L44.0475366,51.3888513 L41.0475366,51.3888513 L41.0475366,51.2905912 L23.6819476,57.6111487 L22.821066,55.2458959 L22.6809975,55.17758 L22.7469694,55.0423174 L22.6558871,54.7920708 L22.9150251,54.6977523 L41.0475366,17.5205944 L41.0475366,17.3888513 L44.0475366,17.3888513 L44.0475366,17.7155232 L62.0849749,54.6977523 L62.3441129,54.7920708 L62.2530306,55.0423174 L62.3190025,55.17758 L62.178934,55.2458959 L61.3180524,57.6111487 L44.0475366,51.325195 Z M41.0475366,24.3641105 L26.9732471,53.2206803 L41.0475366,48.0980579 L41.0475366,24.3641105 Z" id="Combined-Shape" transform="translate(42.500000, 37.500000) rotate(45.000000) translate(-42.500000, -37.500000) "></path>
                </g>
            </g>
        </g>
    </g>
</svg>