<?xml version="1.0" encoding="UTF-8"?>
<svg width="80px" height="80px" viewBox="0 0 80 80" version="1.1" xmlns="http://www.w3.org/2000/svg" xmlns:xlink="http://www.w3.org/1999/xlink">
    <!-- Generator: sketchtool 47.1 (45422) - http://www.bohemiancoding.com/sketch -->
    <title>img/icon-receive</title>
    <desc>Created with sketchtool.</desc>
    <defs></defs>
    <g id="Applet-images" stroke="none" stroke-width="1" fill="none" fill-rule="evenodd">
        <g id="img/icon-receive" fill="#FFFFFF">
            <g id="icon-qr-code">
                <g id="qr-code">
                    <path d="M36.5944889,36.7708772 L0.0888888889,36.7708772 L0.0888888889,0.745614035 L36.5944889,0.745614035 L36.5944889,36.7708772 Z M6.72782222,30.2192982 L29.9555556,30.2192982 L29.9555556,7.29719298 L6.72782222,7.29719298 L6.72782222,30.2192982 Z M79.7333333,36.7708772 L43.2277333,36.7708772 L43.2277333,0.745614035 L79.7333333,0.745614035 L79.7333333,36.7708772 Z M49.8666667,30.2192982 L73.0944,30.2192982 L73.0944,7.29719298 L49.8666667,7.29719298 L49.8666667,30.2192982 Z M36.5944889,79.3421053 L0.0888888889,79.3421053 L0.0888888889,43.3168421 L36.5944889,43.3168421 L36.5944889,79.3421053 Z M6.72782222,72.7905263 L29.9555556,72.7905263 L29.9555556,49.8684211 L6.72782222,49.8684211 L6.72782222,72.7905263 Z M79.7333333,66.2445614 L73.0944,66.2445614 L73.0944,49.8684211 L66.4611556,49.8684211 L66.4611556,59.6929825 L46.5500444,59.6929825 L46.5500444,43.3168421 L53.1832889,43.3168421 L53.1832889,53.1414035 L59.8222222,53.1414035 L59.8222222,43.3168421 L79.7333333,43.3168421 L79.7333333,66.2445614 Z M79.7333333,79.3421053 L46.5500444,79.3421053 L46.5500444,66.2445614 L53.1832889,66.2445614 L53.1832889,72.7905263 L79.7333333,72.7905263 L79.7333333,79.3421053 Z" id="Shape" fill-rule="nonzero"></path>
                    <path d="M13.3610667,13.8431579 L23.3166222,13.8431579 L23.3166222,23.6677193 L13.3610667,23.6677193 L13.3610667,13.8431579 Z M56.5056,13.8431579 L66.4611556,13.8431579 L66.4611556,23.6677193 L56.5056,23.6677193 L56.5056,13.8431579 Z M13.3610667,56.42 L23.3166222,56.42 L23.3166222,66.2445614 L13.3610667,66.2445614 L13.3610667,56.42 Z" id="Shape" fill-rule="nonzero"></path>
                </g>
            </g>
        </g>
    </g>
</svg>