<?xml version="1.0" encoding="UTF-8"?>
<svg width="80px" height="80px" viewBox="0 0 80 80" version="1.1" xmlns="http://www.w3.org/2000/svg" xmlns:xlink="http://www.w3.org/1999/xlink">
    <!-- Generator: sketchtool 47.1 (45422) - http://www.bohemiancoding.com/sketch -->
    <title>img/icon-bch</title>
    <desc>Created with sketchtool.</desc>
    <defs></defs>
    <g id="Applet-images" stroke="none" stroke-width="1" fill="none" fill-rule="evenodd">
        <g id="img/icon-bch" fill="#FFFFFF">
            <g id="icon-bch">
                <g transform="translate(-14.000000, -14.000000)" id="Combined-Shape">
                    <path d="M54,94 C31.90861,94 14,76.09139 14,54 C14,31.90861 31.90861,14 54,14 C76.09139,14 94,31.90861 94,54 C94,76.09139 76.09139,94 54,94 Z M64.106649,55.1091699 C66.4880092,54.503131 68.2656328,52.8779549 68.6979065,49.5865943 C69.2948507,45.0900414 65.8823331,42.7481876 61.2415155,41.2342122 L62.6495807,35.1310431 L58.978684,34.2835498 L57.6057309,40.2257731 C56.6398918,40.0027916 55.650886,39.7946942 54.6661745,39.5883196 L56.0461428,33.6073725 L52.3786386,32.7602968 L50.9693216,38.8615925 C50.1706754,38.6945179 49.3864936,38.5299295 48.6243077,38.353965 L48.6284753,38.3359134 L43.5656109,37.1648652 L42.6504506,41.1319867 C42.6504506,41.1319867 45.3732483,41.7062342 45.3170209,41.7460285 C46.8031173,42.0902179 47.0867368,43.0759154 47.0522108,43.8622579 L45.4482321,50.815064 L43.1935613,60.5811163 C43.018849,61.0392835 42.5688831,61.731908 41.5292804,61.4933594 C41.5668429,61.5463969 38.8590523,60.8764011 38.8590523,60.8764011 L37.106782,65.1442536 L41.8830939,66.2469521 C42.7728509,66.4534656 43.6440819,66.669353 44.5003808,66.8743582 L43.0786511,73.047137 L46.7450813,73.8946961 L48.1540474,67.7871033 C49.1580243,68.0408286 50.1296607,68.2746555 51.0810594,68.4929624 L49.6766359,74.5714988 L53.3474184,75.4189657 L54.7720245,69.2576986 C61.0252006,70.3235198 65.7082223,69.7474335 67.5994147,64.0060294 C69.122521,59.383731 67.4134092,56.7689254 64.106649,55.1091699 Z M53.819313,43.9959555 C55.8896535,44.4739312 62.5549093,45.3098258 61.5451657,49.6876749 C60.5753234,53.8843543 54.179381,51.8913151 52.1069846,51.4128647 L53.819313,43.9959555 Z M49.2300182,63.2623736 L51.119624,55.0848875 C53.6072539,55.6584708 61.5763399,56.7358993 60.466529,61.5477084 C59.4022673,66.1622223 51.7195144,63.8351689 49.2300182,63.2623736 Z" transform="translate(54.000000, 54.000000) rotate(-26.000000) translate(-54.000000, -54.000000) "></path>
                </g>
            </g>
        </g>
    </g>
</svg>