<?xml version="1.0" encoding="UTF-8"?>
<svg width="80px" height="80px" viewBox="0 0 80 80" version="1.1" xmlns="http://www.w3.org/2000/svg" xmlns:xlink="http://www.w3.org/1999/xlink">
    <!-- Generator: sketchtool 47.1 (45422) - http://www.bohemiancoding.com/sketch -->
    <title>img/tab-icons/icon-prices</title>
    <desc>Created with sketchtool.</desc>
    <defs></defs>
    <g id="Images" stroke="none" stroke-width="1" fill="none" fill-rule="evenodd">
        <g id="img/tab-icons/icon-prices" fill="#9B9BAB">
            <g id="icon-chart">
                <g id="stats">
                    <path d="M11.2816327,64.4244898 C11.8530612,64.8163265 14.0571429,65.9102041 15.9183673,63.5591837 L28.522449,45.1428571 L41.8612245,58.0081633 C42.5632653,58.677551 43.5265306,59.0367347 44.5061224,58.922449 C45.4693878,58.8244898 46.3510204,58.3183673 46.922449,57.5183673 L69.044898,25.7959184 L69.844898,36.4081633 C70.0408163,39.1020408 72.5714286,39.5428571 73.4204082,39.477551 C75.2489796,39.3306122 76.6367347,37.7469388 76.4897959,35.9020408 L75.0857143,17.2408163 C74.955102,15.4122449 73.355102,14.0244898 71.5102041,14.1714286 L52.8489796,15.5755102 C51.0204082,15.7061224 49.6326531,17.3061224 49.7795918,19.1510204 C49.9102041,20.9795918 51.4938776,22.3510204 53.355102,22.2204082 L63.9673469,21.4204082 L43.6897959,50.4816327 L30.3183673,37.5836735 C29.6163265,36.8979592 28.6367347,36.555102 27.6734694,36.6693878 C26.6938776,36.7673469 25.8122449,37.2897959 25.2571429,38.1061224 L10.4163265,59.7877551 C9.37142857,61.3061224 9.76326531,63.3795918 11.2816327,64.4244898 L11.2816327,64.4244898 Z" id="Shape" fill-rule="nonzero"></path>
                    <path d="M76.6693878,73.3387755 L6.66122449,73.3387755 L6.66122449,3.33061224 C6.66122449,1.48571429 5.1755102,0 3.33061224,0 C1.48571429,0 0,1.48571429 0,3.33061224 L0,76.6693878 C0,78.5142857 1.48571429,80 3.33061224,80 L76.6693878,80 C78.5142857,80 80,78.5142857 80,76.6693878 C80,74.8244898 78.5142857,73.3387755 76.6693878,73.3387755 Z" id="Shape" fill-rule="nonzero"></path>
                </g>
            </g>
        </g>
    </g>
</svg>