<?xml version="1.0" encoding="UTF-8"?>
<svg width="80px" height="80px" viewBox="0 0 80 80" version="1.1" xmlns="http://www.w3.org/2000/svg" xmlns:xlink="http://www.w3.org/1999/xlink">
    <!-- Generator: sketchtool 47.1 (45422) - http://www.bohemiancoding.com/sketch -->
    <title>img/tab-icons/icon-settings</title>
    <desc>Created with sketchtool.</desc>
    <defs></defs>
    <g id="Applet-images" stroke="none" stroke-width="1" fill="none" fill-rule="evenodd">
        <g id="img/tab-icons/icon-settings" fill="#9B9BAB">
            <g id="icon-gear">
                <g id="settings-cog">
                    <path d="M79.152,33.7874286 C78.9632,32.5430857 78.1051429,31.5049143 76.9206857,31.0848 L70.6454857,28.8534857 C70.2742857,27.8020571 69.8532571,26.7798857 69.3865143,25.7910857 L72.2422857,19.7814857 C72.7812571,18.6482286 72.6532571,17.3078857 71.9090286,16.2944 C69.5021714,13.0208 66.6262857,10.1449143 63.3613714,7.74902857 C62.3469714,7.00434286 61.0112,6.87771429 59.8756571,7.41805714 L53.8697143,10.2715429 C52.8809143,9.8048 51.8573714,9.38468571 50.8050286,9.01348571 L48.5728,2.73737143 C48.1526857,1.5552 47.1172571,0.699428571 45.8756571,0.508342857 C41.4642286,-0.1696 38.1993143,-0.1696 33.7810286,0.508342857 C32.5408,0.699428571 31.504,1.5552 31.0838857,2.73737143 L28.8516571,9.01348571 C27.7993143,9.38468571 26.7757714,9.8048 25.7878857,10.2715429 L19.7796571,7.41805714 C18.6464,6.87817143 17.3083429,7.0048 16.2948571,7.74902857 C13.0299429,10.1449143 10.1540571,13.0208 7.7472,16.2944 C7.00251429,17.3078857 6.87497143,18.6477714 7.41394286,19.7814857 L10.2697143,25.7910857 C9.80297143,26.7780571 9.38285714,27.8025143 9.01074286,28.8534857 L2.73462857,31.0870857 C1.55108571,31.5072 0.6944,32.5449143 0.504228571,33.7874286 C0.161828571,36.0365714 0.00182857143,37.9542857 0.00182857143,39.8304 C0.00182857143,41.7037714 0.161828571,43.6242286 0.504228571,45.8733714 C0.693028571,47.1177143 1.55108571,48.1558857 2.73554286,48.576 L9.01074286,50.8073143 C9.38285714,51.8605714 9.80434286,52.8832 10.2697143,53.872 L7.41394286,59.8793143 C6.87497143,61.0125714 7.00297143,62.3529143 7.74628571,63.3641143 C10.1499429,66.6354286 13.0258286,69.5113143 16.2948571,71.9117714 C17.3083429,72.6564571 18.6464,72.7853714 19.7805714,72.2427429 L25.7865143,69.3892571 C26.7753143,69.856 27.7988571,70.2761143 28.8512,70.6473143 L31.0834286,76.9234286 C31.5035429,78.1056 32.5389714,78.9613714 33.7805714,79.1524571 C35.9876571,79.4925714 37.9652571,79.6571429 39.8276571,79.6571429 C41.6900571,79.6571429 43.6681143,79.4925714 45.8747429,79.1524571 C47.1158857,78.9613714 48.1517714,78.1056 48.5718857,76.9234286 L50.8041143,70.6473143 C51.8564571,70.2761143 52.88,69.856 53.8688,69.3892571 L59.8747429,72.2427429 C61.0102857,72.7849143 62.3483429,72.656 63.3618286,71.9117714 C66.6345143,69.5072 69.5104,66.6313143 71.9094857,63.3641143 C72.6528,62.3529143 72.7808,61.0125714 72.2418286,59.8793143 L69.3860571,53.872 C69.8528,52.8832 70.2738286,51.8582857 70.6450286,50.8073143 L76.9202286,48.576 C78.1046857,48.1558857 78.9627429,47.1181714 79.1515429,45.8733714 C79.4939429,43.6242286 79.6539429,41.7042286 79.6539429,39.8304 C79.6539429,37.9565714 79.4944,36.0361143 79.152,33.7874286 Z M72.6624,42.8434286 L66.7753143,44.9371429 C65.7462857,45.3014857 64.9549714,46.1371429 64.6450286,47.1862857 C64.1193143,48.9641143 63.4272,50.6464 62.5860571,52.1888 C62.064,53.1488 62.0315429,54.3003429 62.5005714,55.2868571 L65.1707429,60.9028571 C63.8806857,62.4521143 62.4539429,63.8811429 60.9024,65.1698286 L55.2873143,62.5028571 C54.2994286,62.0292571 53.1515429,62.0672 52.1901714,62.5874286 C50.6454857,63.4276571 48.9622857,64.1188571 47.1830857,64.6454857 C46.1362286,64.9545143 45.3005714,65.7453714 44.9353143,66.7744 L42.8406857,72.6637714 C40.7026286,72.8813714 38.9536,72.8813714 36.8155429,72.6637714 L34.7209143,66.7744 C34.3552,65.7476571 33.5195429,64.9540571 32.4731429,64.6454857 C30.6930286,64.1188571 29.0084571,63.4276571 27.4660571,62.5874286 C26.5046857,62.0630857 25.3545143,62.0297143 24.3689143,62.5028571 L18.7538286,65.1721143 C17.2036571,63.8806857 15.7769143,62.4539429 14.4854857,60.9028571 L17.1556571,55.2868571 C17.6246857,54.2998857 17.5922286,53.1488 17.0701714,52.1888 C16.2313143,50.6509714 15.5387429,48.9664 15.0112,47.184 C14.7012571,46.1371429 13.9090286,45.3014857 12.8809143,44.9371429 L6.99382857,42.8434286 C6.88274286,41.7723429 6.82925714,40.7853714 6.82925714,39.8299429 C6.82925714,38.8745143 6.88274286,37.8898286 6.99382857,36.8187429 L12.8822857,34.7232 C13.9099429,34.3588571 14.7012571,33.5232 15.0112,32.4763429 C15.5378286,30.6985143 16.2304,29.0139429 17.0701714,27.4692571 C17.5922286,26.5115429 17.6246857,25.3577143 17.1556571,24.3734857 L14.4854857,18.7574857 C15.7778286,17.2064 17.2045714,15.7773714 18.7538286,14.4882286 L24.3712,17.1574857 C25.3545143,17.6310857 26.5092571,17.5931429 27.4683429,17.0729143 C29.0098286,16.2326857 30.6930286,15.5414857 32.4731429,15.0148571 C33.52,14.7058286 34.3556571,13.9126857 34.7209143,12.8859429 L36.8155429,6.99657143 C38.9334857,6.77668571 40.6857143,6.77668571 42.8406857,6.99657143 L44.9353143,12.8859429 C45.3010286,13.9126857 46.1366857,14.7062857 47.1830857,15.0148571 C48.9632,15.5414857 50.6477714,16.2326857 52.1901714,17.0729143 C53.1515429,17.5972571 54.2994286,17.6306286 55.2873143,17.1574857 L60.9024,14.4882286 C62.4516571,15.7773714 63.8784,17.2064 65.1707429,18.7574857 L62.5005714,24.3734857 C62.0315429,25.3581714 62.064,26.5115429 62.5860571,27.4692571 C63.4285714,29.0185143 64.1206857,30.7008 64.6450286,32.4740571 C64.9549714,33.5232 65.7462857,34.3588571 66.7753143,34.7232 L72.6624,36.8169143 C72.7734857,37.888 72.8269714,38.8749714 72.8269714,39.8304 C72.8269714,40.7858286 72.7734857,41.7723429 72.6624,42.8434286 Z" id="Shape" fill-rule="nonzero"></path>
                    <path d="M39.8281143,23.2237714 C31.1140571,23.2237714 24.0242286,30.3131429 24.0242286,39.0276571 C24.0242286,47.7421714 31.1136,54.8315429 39.8281143,54.8315429 C48.5426286,54.8315429 55.632,47.7421714 55.632,39.0276571 C55.632,30.3131429 48.5421714,23.2237714 39.8281143,23.2237714 Z M39.8281143,48.0041143 C34.8786286,48.0041143 30.8516571,43.9771429 30.8516571,39.0276571 C30.8516571,34.0781714 34.8786286,30.0512 39.8281143,30.0512 C44.7776,30.0512 48.8045714,34.0781714 48.8045714,39.0276571 C48.8045714,43.9771429 44.7776,48.0041143 39.8281143,48.0041143 Z" id="Shape" fill-rule="nonzero"></path>
                </g>
            </g>
        </g>
    </g>
</svg>