<?xml version="1.0" encoding="UTF-8"?>
<svg width="80px" height="80px" viewBox="0 0 80 80" version="1.1" xmlns="http://www.w3.org/2000/svg" xmlns:xlink="http://www.w3.org/1999/xlink">
    <!-- Generator: sketchtool 47.1 (45422) - http://www.bohemiancoding.com/sketch -->
    <title>img/tab-icons/icon-alerts</title>
    <desc>Created with sketchtool.</desc>
    <defs></defs>
    <g id="Applet-images" stroke="none" stroke-width="1" fill="none" fill-rule="evenodd">
        <g id="img/tab-icons/icon-alerts" fill="#9B9BAB">
            <g id="icon-bell">
                <g id="bell">
                    <path d="M76.7684375,55.1601563 C72.4679687,55.1601563 68.9695312,51.6615625 68.9695312,47.36125 L68.9695312,28.9770312 C68.9695312,13.0032813 55.9739062,0.00765625 40,0.00765625 C24.0260938,0.00765625 11.0304688,13.0032813 11.0304688,28.9770312 L11.0304688,47.36125 C11.0304688,51.6617188 7.531875,55.1601563 3.2315625,55.1601563 C1.446875,55.1601563 0,56.6070313 0,58.391875 C0,60.1767188 1.446875,61.6234375 3.2315625,61.6234375 L76.7684375,61.6234375 C78.5532813,61.6234375 80,60.1767188 80,58.391875 C80,56.6070313 78.5532812,55.1601563 76.7684375,55.1601563 Z M15.1675,55.1601563 C16.6378125,52.9175 17.49375,50.2371875 17.49375,47.36125 L17.49375,28.9770313 C17.49375,16.5670313 27.59,6.47078125 40,6.47078125 C52.41,6.47078125 62.50625,16.5670313 62.50625,28.9770313 L62.50625,47.36125 C62.50625,50.2373438 63.3621875,52.9176563 64.8323437,55.1601563 L15.1675,55.1601563 L15.1675,55.1601563 Z" id="Shape" fill-rule="nonzero"></path>
                    <path d="M47.9823437,70.3035937 C46.4384375,69.4079687 44.4609375,69.93375 43.5654687,71.4775 C42.425,73.44375 39.8976562,74.1153125 37.9314062,72.9746875 C37.3115625,72.6151562 36.79375,72.0973437 36.4342187,71.4775 C35.53875,69.9335937 33.5610937,69.4082812 32.0173437,70.3035937 C30.4735937,71.1990625 29.948125,73.1767187 30.8435937,74.7204687 C31.7670312,76.3123437 33.0965625,77.641875 34.6884375,78.5653125 C36.3557812,79.5326562 38.1804687,79.9921875 39.9820312,79.9921875 C43.635625,79.9921875 47.1946875,78.1017187 49.1560937,74.7203125 C50.0515625,73.1767187 49.52625,71.1990625 47.9823437,70.3035937 Z" id="Shape" fill-rule="nonzero"></path>
                </g>
            </g>
        </g>
    </g>
</svg>