<?xml version="1.0" encoding="UTF-8"?>
<svg width="80px" height="80px" viewBox="0 0 80 80" version="1.1" xmlns="http://www.w3.org/2000/svg" xmlns:xlink="http://www.w3.org/1999/xlink">
    <!-- Generator: sketchtool 47.1 (45422) - http://www.bohemiancoding.com/sketch -->
    <title>img/icon-usd</title>
    <desc>Created with sketchtool.</desc>
    <defs></defs>
    <g id="Applet-images" stroke="none" stroke-width="1" fill="none" fill-rule="evenodd">
        <g id="img/icon-usd" fill="#FFFFFF">
            <g id="icon-usd">
                <g id="Combined-Shape">
                    <path d="M42.5,42.6991126 C44.4320369,43.3596408 45.8490855,44.1155315 46.7511727,44.9667969 C47.9530016,46.1009171 48.5539071,47.505851 48.5539071,49.1816406 C48.5539071,51.0097748 47.8641353,52.4570259 46.4845712,53.5234375 C45.4401501,54.3307814 44.1119678,54.8325144 42.5,55.0286435 L42.5,42.6991126 Z M39.5,41.8355439 L39.5,55.0404019 C37.8216125,54.8319076 36.286206,54.2289252 34.8937508,53.2314453 C33.1333254,51.9703713 32.2531258,50.1803501 32.2531258,47.8613281 L27.4796883,47.8613281 L27.4289071,48.0136719 C27.3442712,51.3652511 28.6688023,54.0397036 31.4025399,56.0371094 C33.7838245,57.7769953 36.482957,58.7590862 39.5,58.9834018 L39.5,64 L42.5,64 L42.5,58.9729054 C45.5310457,58.7432764 48.0441131,57.8577823 50.0392587,56.3164062 C52.3836714,54.5051993 53.5558602,52.1100409 53.5558602,49.1308594 C53.5558602,46.371731 52.5825627,44.0527438 50.6359383,42.1738281 C48.7542875,40.357626 46.0423337,38.9684772 42.5,38.0063433 L42.5,25.0937513 C43.9822964,25.3695933 45.251235,26.0017518 46.3068368,26.9902344 C47.7710368,28.361335 48.5031258,30.0963437 48.5031258,32.1953125 L53.2765633,32.1953125 L53.3527352,32.0429688 C53.4204439,29.0976415 52.2990358,26.5205189 49.9884774,24.3115234 C48.0495565,22.4578299 45.5534157,21.3819178 42.5,21.0837675 L42.5,17 L39.5,17 L39.5,21.0338075 C36.4140187,21.224453 33.862998,22.1773697 31.8468758,23.8925781 C29.5786353,25.8222753 28.4445321,28.2343605 28.4445321,31.1289062 C28.4445321,33.8711075 29.4982325,36.1477774 31.6056649,37.9589844 C33.5411145,39.6223828 36.1725368,40.9145587 39.5,41.8355439 Z M39.5,24.9863041 L39.5,37.1055929 C37.7625117,36.4912859 36.4259957,35.8151408 35.4904305,35.0771484 C34.1277935,34.0022733 33.4464852,32.6608153 33.4464852,31.0527344 C33.4464852,29.2415274 34.0685493,27.7688859 35.3126962,26.6347656 C36.3378414,25.7002794 37.7335994,25.1507954 39.5,24.9863041 Z M40.4904774,80.5 C18.3990874,80.5 0.490477413,62.59139 0.490477413,40.5 C0.490477413,18.40861 18.3990874,0.5 40.4904774,0.5 C62.5818674,0.5 80.4904774,18.40861 80.4904774,40.5 C80.4904774,62.59139 62.5818674,80.5 40.4904774,80.5 Z"></path>
                </g>
            </g>
        </g>
    </g>
</svg>