<?xml version="1.0" encoding="UTF-8"?>
<svg width="80px" height="80px" viewBox="0 0 80 80" version="1.1" xmlns="http://www.w3.org/2000/svg" xmlns:xlink="http://www.w3.org/1999/xlink">
    <!-- Generator: sketchtool 47.1 (45422) - http://www.bohemiancoding.com/sketch -->
    <title>img/icon-tx-out</title>
    <desc>Created with sketchtool.</desc>
    <defs></defs>
    <g id="Applet-images" stroke="none" stroke-width="1" fill="none" fill-rule="evenodd">
        <g id="img/icon-tx-out" fill="#FFFFFF">
            <g id="icon-withdraw">
                <g id="up">
                    <path d="M40,80 C17.90861,80 0,62.09139 0,40 C0,17.90861 17.90861,0 40,0 C62.09139,0 80,17.90861 80,40 C80,62.09139 62.09139,80 40,80 Z M40,77 C60.4345357,77 77,60.4345357 77,40 C77,19.5654643 60.4345357,3 40,3 C19.5654643,3 3,19.5654643 3,40 C3,60.4345357 19.5654643,77 40,77 Z" id="Combined-Shape"></path>
                    <path d="M38.5,22.2382565 L38.5,48.3183594 L41.5,48.3183594 L41.5,22.138258 L52.0912052,32.7294632 L54.2125255,30.6081428 L40.0703899,16.4660072 L40.0499992,16.4863979 L40.0296086,16.4660072 L25.8874729,30.6081428 L28.0087933,32.7294632 L38.5,22.2382565 Z M59,55.7235107 L59,58.7235107 L21,58.7235107 L21,55.7235107 L59,55.7235107 Z" id="Combined-Shape"></path>
                </g>
            </g>
        </g>
    </g>
</svg>