<?xml version="1.0" encoding="UTF-8"?>
<svg width="80px" height="80px" viewBox="0 0 80 80" version="1.1" xmlns="http://www.w3.org/2000/svg" xmlns:xlink="http://www.w3.org/1999/xlink">
    <!-- Generator: sketchtool 47.1 (45422) - http://www.bohemiancoding.com/sketch -->
    <title>img/icon-btc</title>
    <desc>Created with sketchtool.</desc>
    <defs></defs>
    <g id="Images" stroke="none" stroke-width="1" fill="none" fill-rule="evenodd">
        <g id="img/icon-btc" fill="#FFFFFF">
            <g id="icon-btc">
                <g id="Combined-Shape">
                    <path d="M40,80 C17.90861,80 7.10542736e-14,62.09139 7.10542736e-14,40 C7.10542736e-14,17.90861 17.90861,2.27373675e-13 40,2.27373675e-13 C62.09139,2.27373675e-13 80,17.90861 80,40 C80,62.09139 62.09139,80 40,80 Z M49.207855,40.6707988 C51.5892152,40.0647598 53.3668387,38.4395837 53.7991124,35.1482232 C54.3960567,30.6516702 50.983539,28.3098165 46.3427214,26.7958411 L47.7507866,20.6926719 L44.0798899,19.8451786 L42.7069368,25.7874019 C41.7410977,25.5644204 40.7520919,25.3563231 39.7673804,25.1499484 L41.1473487,19.1690013 L37.4798445,18.3219256 L36.0705276,24.4232213 C35.2718814,24.2561468 34.4876996,24.0915584 33.7255137,23.9155939 L33.7296812,23.8975422 L28.6668169,22.726494 L27.7516566,26.6936156 C27.7516566,26.6936156 30.4744543,27.267863 30.4182269,27.3076574 C31.9043233,27.6518467 32.1879427,28.6375443 32.1534168,29.4238867 L30.5494381,36.3766928 L28.2947672,46.1427452 C28.1200549,46.6009123 27.6700891,47.2935368 26.6304864,47.0549882 C26.6680489,47.1080257 23.9602583,46.43803 23.9602583,46.43803 L22.2079879,50.7058825 L26.9842998,51.8085809 C27.8740568,52.0150945 28.7452879,52.2309819 29.6015867,52.4359871 L28.1798571,58.6087659 L31.8462872,59.4563249 L33.2552533,53.3487322 C34.2592302,53.6024575 35.2308667,53.8362843 36.1822653,54.0545913 L34.7778419,60.1331276 L38.4486243,60.9805945 L39.8732305,54.8193274 C46.1264066,55.8851487 50.8094282,55.3090623 52.7006207,49.5676582 C54.223727,44.9453598 52.5146151,42.3305542 49.207855,40.6707988 Z M38.9205189,29.5575843 C40.9908594,30.0355601 47.6561152,30.8714547 46.6463716,35.2493038 C45.6765294,39.4459831 39.280587,37.452944 37.2081905,36.9744936 L38.9205189,29.5575843 Z M34.3312242,48.8240024 L36.2208299,40.6465163 C38.7084599,41.2200997 46.6775459,42.2975282 45.567735,47.1093373 C44.5034733,51.7238512 36.8207204,49.3967978 34.3312242,48.8240024 Z"></path>
                </g>
            </g>
        </g>
    </g>
</svg>